<?xml version="1.0" encoding="UTF-8"?><!DOCTYPE svg PUBLIC "-//W3C//DTD SVG 1.1//EN" "http://www.w3.org/Graphics/SVG/1.1/DTD/svg11.dtd"><svg xmlns="http://www.w3.org/2000/svg" xmlns:xlink="http://www.w3.org/1999/xlink"><symbol id="icon--fb" viewBox="0 0 430.113 430.114"><path d="M158.081 83.3v59.218h-43.385v72.412h43.385v215.183h89.122V214.936h59.805s5.601-34.721 8.316-72.685H247.54V92.74c0-7.4 9.717-17.354 19.321-17.354h48.557V.001h-66.021C155.878-.004 158.081 72.48 158.081 83.3z" data-original="#000000" class="active-path" data-old_color="#7e406d" fill="#7e406d"/></symbol><symbol id="icon--in" viewBox="0 0 512 512"><path d="M373.659 0H138.341C62.06 0 0 62.06 0 138.341v235.318C0 449.94 62.06 512 138.341 512h235.318C449.94 512 512 449.94 512 373.659V138.341C512 62.06 449.94 0 373.659 0zm96.977 373.659c0 53.473-43.503 96.977-96.977 96.977H138.341c-53.473 0-96.977-43.503-96.977-96.977V138.341c0-53.473 43.503-96.977 96.977-96.977h235.318c53.473 0 96.977 43.503 96.977 96.977v235.318z" data-original="#000000" class="active-path" data-old_color="#7e406d" fill="#7e406d"/><path d="M370.586 238.141c-3.64-24.547-14.839-46.795-32.386-64.342-17.547-17.546-39.795-28.746-64.341-32.385a114.73 114.73 0 00-33.682 0c-30.336 4.499-57.103 20.541-75.372 45.172-18.269 24.631-25.854 54.903-21.355 85.237 4.499 30.335 20.541 57.102 45.172 75.372 19.996 14.831 43.706 22.619 68.153 22.619 5.667 0 11.375-.418 17.083-1.265 30.336-4.499 57.103-20.541 75.372-45.172 18.27-24.63 25.855-54.901 21.356-85.236zm-102.795 89.491c-19.405 2.882-38.77-1.973-54.527-13.66-15.757-11.687-26.019-28.811-28.896-48.216-2.878-19.405 1.973-38.77 13.66-54.527 11.688-15.757 28.811-26.019 48.217-28.897a73.42 73.42 0 0121.545.001c32.231 4.779 57.098 29.645 61.878 61.877 5.94 40.058-21.817 77.482-61.877 83.422zM400.049 111.951a20.83 20.83 0 00-14.625-6.058 20.826 20.826 0 00-14.625 6.058 20.814 20.814 0 00-6.058 14.625 20.814 20.814 0 006.058 14.625 20.83 20.83 0 0014.625 6.058 20.826 20.826 0 0014.625-6.058 20.83 20.83 0 006.058-14.625 20.826 20.826 0 00-6.058-14.625z" data-original="#000000" class="active-path" data-old_color="#7e406d" fill="#7e406d"/></symbol><symbol id="icon--lotus" viewBox="0 0 480.005 480.005"><path d="M475.129 94.098l-1.678-8.482-8.635.435c-1.327.067-32.946 1.771-72.707 13.517-23.235 6.864-44.382 15.774-63.059 26.493-27.264-66.798-80.151-113.056-82.506-115.092l-6.54-5.655-6.541 5.655c-2.368 2.047-55.25 48.304-82.506 115.092-18.677-10.719-39.824-19.629-63.059-26.493-39.762-11.746-71.381-13.45-72.708-13.517l-8.635-.435-1.678 8.482c-.258 1.303-6.292 32.389-4.566 73.813 2.276 54.638 17.263 101.483 43.348 135.63-25.319 17.852-38.631 38.872-38.631 61.268 0 30.872 25.512 59.2 71.836 79.767 43.742 19.42 101.679 30.115 163.14 30.115 61.46 0 119.397-10.695 163.139-30.115 46.325-20.566 71.836-48.895 71.836-79.767 0-22.396-13.313-43.416-38.631-61.268 26.085-34.147 41.072-80.992 43.348-135.63 1.725-41.425-4.309-72.51-4.567-73.813zM240.002 32.22c15.007 14.622 52.094 54.144 71.843 104.723-14.357 9.981-26.877 21.188-37.331 33.481-10.043-21.98-27.061-36.894-27.972-37.682l-6.54-5.655-6.541 5.655c-.911.788-17.93 15.701-27.972 37.682-10.454-12.294-22.974-23.5-37.33-33.48C187.914 86.36 225 46.837 240.002 32.22zm20.245 157.587c-8.165 12.844-14.943 27.059-20.285 42.575-5.342-15.498-12.105-29.743-20.21-42.548 3.741-15.032 13.59-27.953 20.251-35.343 6.659 7.389 16.497 20.297 20.244 35.316zM20.313 167.564c-1.146-26.563 1.162-48.98 2.783-60.74 29.029 3.195 121.761 18.146 171.126 81.41 30.408 38.97 38.619 89.507 40.152 125.04 1.162 26.924-1.225 49.59-2.848 61.214-27.897-1.692-116.957-12.547-171.062-81.885-30.407-38.97-38.617-89.506-40.151-125.039zm434.665 197.245c0 22.161-21.852 44.572-59.952 61.487-41.243 18.311-96.298 28.395-155.024 28.395s-113.781-10.084-155.024-28.395c-38.1-16.915-59.952-39.327-59.952-61.487 0-11.389 5.714-28.247 31.635-45.956 70.41 75.018 178.513 75.946 183.341 75.946 4.828 0 112.931-.927 183.341-75.946 25.921 17.709 31.635 34.568 31.635 45.956zm4.714-197.245c-1.534 35.533-9.744 86.069-40.151 125.039-52.139 66.818-136.739 79.326-167.784 81.662 1.693-13 3.714-35.094 2.621-61.338-.584-14.017-2.005-27.525-4.234-40.435 6.191-33.539 18.178-61.879 35.639-84.258 30.408-38.97 77.432-59.221 111.525-69.347 25.492-7.572 47.801-10.783 59.6-12.069 1.621 11.76 3.93 34.18 2.784 60.746z"/></symbol><symbol id="icon--tw" viewBox="0 0 512 512"><path d="M512 97.248c-19.04 8.352-39.328 13.888-60.48 16.576 21.76-12.992 38.368-33.408 46.176-58.016-20.288 12.096-42.688 20.64-66.56 25.408C411.872 60.704 384.416 48 354.464 48c-58.112 0-104.896 47.168-104.896 104.992 0 8.32.704 16.32 2.432 23.936-87.264-4.256-164.48-46.08-216.352-109.792-9.056 15.712-14.368 33.696-14.368 53.056 0 36.352 18.72 68.576 46.624 87.232-16.864-.32-33.408-5.216-47.424-12.928v1.152c0 51.008 36.384 93.376 84.096 103.136-8.544 2.336-17.856 3.456-27.52 3.456-6.72 0-13.504-.384-19.872-1.792 13.6 41.568 52.192 72.128 98.08 73.12-35.712 27.936-81.056 44.768-130.144 44.768-8.608 0-16.864-.384-25.12-1.44C46.496 446.88 101.6 464 161.024 464c193.152 0 298.752-160 298.752-298.688 0-4.64-.16-9.12-.384-13.568 20.832-14.784 38.336-33.248 52.608-54.496z" data-original="#000000" class="active-path" data-old_color="#7e406d" fill="#7e406d"/></symbol></svg>